<?xml version="1.0" standalone="no"?>
<!DOCTYPE svg PUBLIC "-//W3C//DTD SVG 20010904//EN"
 "http://www.w3.org/TR/2001/REC-SVG-20010904/DTD/svg10.dtd">
<svg version="1.0" xmlns="http://www.w3.org/2000/svg"
 width="700.000000pt" height="700.000000pt" viewBox="0 0 700.000000 700.000000"
 preserveAspectRatio="xMidYMid meet">
<metadata>
Created by potrace 1.14, written by Peter Selinger 2001-2017
</metadata>
<g transform="translate(0.000000,700.000000) scale(0.100000,-0.100000)"
fill="#000000" stroke="none">
<path d="M598 6669 c-209 -34 -333 -273 -239 -463 58 -119 169 -190 296 -189
41 0 85 7 107 16 36 15 37 15 52 -8 93 -142 299 -161 418 -40 55 56 80 115 81
188 0 75 -29 150 -78 197 -19 18 -32 37 -29 42 8 13 144 9 212 -7 75 -18 152
-55 210 -103 l44 -35 78 78 78 78 -56 48 c-208 178 -531 220 -793 103 l-59
-27 -41 38 c-77 70 -181 101 -281 84z"/>
<path d="M4801 6648 c-5 -13 -79 -187 -165 -386 l-156 -364 0 -269 0 -269
-213 0 -212 0 -66 63 c-101 96 -246 156 -381 157 -46 0 -46 0 -79 58 -83 148
-270 262 -429 262 l-46 0 -22 69 c-56 171 -203 310 -377 356 -84 21 -218 20
-296 -5 -171 -52 -311 -188 -360 -350 l-20 -67 -72 -6 c-166 -12 -346 -134
-419 -282 -18 -37 -23 -40 -54 -37 -60 7 -166 -18 -252 -59 -174 -84 -294
-260 -304 -444 l-2 -50 -73 -27 c-138 -50 -244 -142 -304 -263 -35 -71 -59
-155 -59 -207 l0 -38 -55 0 -55 0 0 -32 c1 -18 29 -244 63 -503 l63 -470 -29
-35 c-44 -50 -85 -146 -95 -218 -23 -167 52 -334 195 -432 20 -14 27 -61 112
-705 49 -379 89 -690 88 -692 -2 -1 -21 4 -42 12 -97 34 -203 8 -279 -68 -113
-114 -114 -270 -2 -382 35 -35 68 -57 102 -69 l50 -16 -4 -89 c-8 -166 58
-303 188 -389 103 -69 131 -74 420 -80 140 -2 355 -1 478 3 l222 7 0 763 0
763 2079 -4 c1439 -3 2082 -1 2086 6 6 9 39 418 170 2080 19 245 37 469 41
498 l5 52 215 0 214 0 0 215 0 215 -219 0 -219 0 -54 218 -54 217 -596 3 -595
2 -6 158 c-4 86 -7 208 -7 270 l0 114 161 376 c89 207 163 380 166 385 2 4
-95 7 -217 7 -219 0 -221 0 -229 -22z"/>
<path d="M2561 1419 c-70 -14 -127 -47 -180 -105 -152 -166 -98 -426 108 -523
l56 -26 493 -3 c536 -3 556 -1 642 53 89 56 150 167 150 274 0 166 -112 302
-274 330 -75 13 -928 13 -995 0z"/>
<path d="M4962 1420 c-97 -20 -186 -92 -234 -189 -32 -64 -33 -205 -2 -272 42
-91 117 -155 217 -184 47 -14 120 -15 548 -13 l494 3 55 26 c80 37 125 81 162
157 29 59 33 76 33 147 -1 65 -6 91 -27 137 -34 74 -103 141 -176 170 -57 23
-60 23 -542 25 -267 1 -504 -3 -528 -7z"/>
<path d="M4168 775 c-63 -33 -91 -72 -138 -200 -23 -59 -47 -120 -55 -134 -19
-36 -64 -77 -103 -94 -31 -13 -23 -14 125 -20 87 -4 552 -6 1033 -5 l875 3
-605 5 c-670 6 -642 3 -708 73 -23 24 -49 74 -82 162 -27 70 -60 142 -74 160
-57 75 -177 97 -268 50z"/>
</g>
</svg>
