<?xml version="1.0" encoding="UTF-8" standalone="no"?> <svg xmlns="http://www.w3.org/2000/svg" viewBox="0 0 512 512"><g id="flat"><polygon points="384 24 352 24 328 80 328 128 360 128 360 80 384 24" style="fill:#dbdbdb"/><rect x="328" y="104" width="32" height="16" style="fill:#cbcbcb"/><polygon points="456 152 460 168 234.668 169.31 232 152 240 120 448 120 456 152" style="fill:#ebebeb"/><rect x="200" y="152" width="288" height="32" style="fill:#e4e4e2"/><path d="M336,184a40,40,0,0,0-32.081-39.2c.006-.272.081-.525.081-.8a40,40,0,0,0-40-40c-1.168,0-2.268.246-3.411.344a39.78,39.78,0,0,0-37.538-24.187,39.875,39.875,0,0,0-77.4-3.474c-.341,1.155-.423,2.315-.656,3.474a39.78,39.78,0,0,0-37.581,24.187c-1.143-.1-2.243-.344-3.411-.344a40,40,0,0,0-40,40c0,.273.075.526.081.8A40,40,0,0,0,32,184l7.994,8.223L318.667,192Z" style="fill:#fcd795"/><circle cx="256" cy="160" r="24" style="fill:#fcb94d"/><path d="M180.445,136.8l-9.992-12.5,15-12.055a32.748,32.748,0,0,1,44.2,2.1l-11.312,11.312a16.806,16.806,0,0,0-22.7-1.078Z" style="fill:#eac88a"/><path d="M188.237,120.323a19.967,19.967,0,0,0-35.881,8.094,28,28,0,1,0,23.224,23.2,19.885,19.885,0,0,0,12.657-31.292Z" style="fill:#fcb94d"/><path d="M122.344,53.656a39.027,39.027,0,0,0-45.125-7.32L64.082,53.094,56.738,38.883l13.324-6.86a55.022,55.022,0,0,1,63.594,10.321Z" style="fill:#eac88a"/><polygon points="432 488 296 488 344 184 456 184 432 488" style="fill:#4298d1"/><polygon points="456 184 360 184 344 184 304 488 320 488 357.895 200 454.737 200 456 184" style="fill:#3e8cc7"/><polygon points="304 488 72 488 62.77 478.653 24 184 344 184 304 488" style="fill:#ebebeb"/><polygon points="96 184 120 488 72 488 62.77 478.653 24 184 96 184" style="fill:#c94536"/><polygon points="249.044 474.78 272 184 184 184 184 474.717 249.044 474.78" style="fill:#c94536"/><path d="M90.142,45.858A19.91,19.91,0,0,0,70.78,40.781a23.732,23.732,0,0,0-5.809-9.752A24,24,0,1,0,58.49,69.475a19.8,19.8,0,0,0,3.368,4.667A20,20,0,1,0,90.142,45.858Z" style="fill:#fcb94d"/><path d="M88,432H72V417.887a36.744,36.744,0,0,1,20.422-33.043l7.156,14.312A20.829,20.829,0,0,0,88,417.887Z" style="fill:#eac88a"/><path d="M99.156,256H88V240H99.156a45.808,45.808,0,0,0,38.188-20.438l13.312,8.876A61.778,61.778,0,0,1,99.156,256Z" style="fill:#eac88a"/><rect x="392" y="240" width="16" height="16" style="fill:#69b9e7"/><rect x="392" y="304" width="16" height="16" style="fill:#69b9e7"/><rect x="368" y="272" width="16" height="16" style="fill:#69b9e7"/><path d="M488,488H347.088a16,16,0,0,1-14.981-10.382l-5.126-13.668c-5.191-13.843-24.771-13.843-29.962,0l-5.126,13.668A16,16,0,0,1,276.912,488H136V376H488Z" style="fill:#f4f4f4"/><rect x="168" y="408" width="112" height="48" rx="24" ry="24" style="fill:#69b9e7"/><rect x="344" y="408" width="112" height="48" rx="24" ry="24" style="fill:#f85542"/><ellipse cx="184" cy="304" rx="48" ry="40" style="fill:#fdb62f"/><path d="M63.542,425.282a20,20,0,1,0-22.228,22.144,32,32,0,1,0,22.228-22.144Z" style="fill:#fcb94d"/><path d="M82.884,262.884a20,20,0,1,0-27.7-14.741,32,32,0,1,0,27.7,14.741Z" style="fill:#fcb94d"/><rect x="128" y="376" width="8" height="112" style="fill:#e1e1e1"/></g></svg>